<svg xmlns="http://www.w3.org/2000/svg" xmlns:xlink="http://www.w3.org/1999/xlink" version="1.1" x="0px" y="0px" viewBox="0 0 48 48" enable-background="new 0 0 48 48" xml:space="preserve"><g><path fill="#000000" d="M33.6,13.2c-2-0.3-3.9,0.1-5.8,1c-0.8,0.4-1.8,0.7-2.7,0.8c0.3-2.4,1.4-9.3,6.7-12.5   c0.5-0.3,0.6-0.9,0.4-1.4c-0.3-0.5-0.9-0.7-1.4-0.4c-1.6,1-2.9,2.3-3.9,3.6C20-4.9,6.7,8.8,6.7,8.8s11.7,5.1,17.6,0.6   c-0.8,2.4-1.1,4.6-1.2,5.6c-1-0.1-1.9-0.4-2.8-0.8c-1.9-0.9-3.8-1.3-5.8-1c-6.8,1-10.8,9.5-9,18.9c1.8,9.4,8.7,16.2,15.5,15.2   c0.6-0.1,1.2-0.2,1.7-0.4c0.9-0.3,1.9-0.3,2.8,0c0.5,0.2,1.1,0.4,1.7,0.4c6.8,1,13.7-5.8,15.5-15.2C44.4,22.7,40.3,14.3,33.6,13.2z   "></path></g></svg>