<?xml version="1.0" encoding="UTF-8" standalone="no"?>
<!-- Generator: Adobe Illustrator 18.0.0, SVG Export Plug-In . SVG Version: 6.00 Build 0)  -->

<svg
   xmlns:dc="http://purl.org/dc/elements/1.1/"
   xmlns:cc="http://creativecommons.org/ns#"
   xmlns:rdf="http://www.w3.org/1999/02/22-rdf-syntax-ns#"
   xmlns:svg="http://www.w3.org/2000/svg"
   xmlns="http://www.w3.org/2000/svg"
   xmlns:sodipodi="http://sodipodi.sourceforge.net/DTD/sodipodi-0.dtd"
   xmlns:inkscape="http://www.inkscape.org/namespaces/inkscape"
   version="1.1"
   id="Layer_1"
   x="0px"
   y="0px"
   viewBox="0 0 120 120"
   enable-background="new 0 0 64 64"
   xml:space="preserve"
   inkscape:version="0.91 r13725"
   sodipodi:docname="placeholder_recipe.svg"
   width="120"
   height="120"><metadata
     id="metadata63"><rdf:RDF><cc:Work
         rdf:about=""><dc:format>image/svg+xml</dc:format><dc:type
           rdf:resource="http://purl.org/dc/dcmitype/StillImage" /><dc:title></dc:title></cc:Work></rdf:RDF></metadata><defs
     id="defs61" /><sodipodi:namedview
     pagecolor="#ffffff"
     bordercolor="#666666"
     borderopacity="1"
     objecttolerance="10"
     gridtolerance="10"
     guidetolerance="10"
     inkscape:pageopacity="0"
     inkscape:pageshadow="2"
     inkscape:window-width="1855"
     inkscape:window-height="1056"
     id="namedview59"
     showgrid="false"
     inkscape:zoom="3.6875"
     inkscape:cx="-8.4067796"
     inkscape:cy="32"
     inkscape:window-x="65"
     inkscape:window-y="24"
     inkscape:window-maximized="1"
     inkscape:current-layer="g3" /><g
     id="g3"
     transform="translate(0,56)"><rect
       style="fill:#9b9b9b;fill-opacity:1"
       id="rect4264"
       width="120"
       height="120"
       x="0"
       y="-56" /><g
       id="g4266"
       transform="matrix(1.515625,0,0,1.4763601,11.5,-43.243523)"><g
         id="g7"
         style="fill:#bc3a4a;fill-opacity:1"><g
           id="g9"
           style="fill:#bc3a4a;fill-opacity:1"><path
             d="M 32,0 C 49.7,0 64,14.3 64,32 64,49.7 49.7,64 32,64 14.3,64 0,49.7 0,32 0,14.3 14.3,0 32,0 Z"
             id="path11"
             style="fill:#bc3a4a;fill-opacity:1"
             inkscape:connector-curvature="0" /></g></g><g
         id="g15"><g
           id="g17"><g
             id="g19"><g
               id="g21"><path
                 d="m 38.9,36.9 c 0,0 0.1,0 0.1,0 l -0.5,12.9 c 0,3.1 2.2,5.6 4.9,5.6 l 0,-17.7 0,-0.8"
                 id="path23"
                 inkscape:connector-curvature="0"
                 style="fill:#424a51" /></g></g></g><g
           id="g25"><g
             id="g27"><g
               id="g29"><path
                 d="M 38.9,36.9 C 37.1,36.4 36.1,35.2 36.1,33 l 0,-9.9 c 0,-5.6 2.5,-11.4 7.3,-12.6 l 0,5.6 0,20.8"
                 id="path31"
                 inkscape:connector-curvature="0"
                 style="fill:#ebeced" /></g></g></g><g
           id="g33"><g
             id="g35"><g
               id="g37"><path
                 style="fill:#ebeced"
                 d="m 38.900002,36.900002 4.5,0"
                 id="line39"
                 inkscape:connector-curvature="0" /></g></g></g></g><g
         id="g41"><g
           id="g43"><g
             id="g45"><g
               id="g47"><path
                 d="m 23.2,36.9 -0.4,15.3 c 0,1.8 1.3,3.3 2.8,3.3 1.5,0 2.8,-1.5 2.8,-3.3 L 28,36.9"
                 id="path49"
                 inkscape:connector-curvature="0"
                 style="fill:#424a51" /></g></g></g><g
           id="g51"><g
             id="g53"><g
               id="g55"><path
                 d="m 30.8,10.5 0,12.3 c 0,0.5 -0.4,0.9 -0.8,0.9 -0.4,0 -0.8,-0.4 -0.8,-0.9 l -0.4,-12.3 -1.4,0 -0.6,12.3 c 0,0.5 -0.4,0.9 -0.8,0.9 -0.4,0 -0.8,-0.4 -0.8,-0.9 l -0.4,-12.3 -1.6,0 -0.4,12.2 c 0,0.5 -0.4,0.9 -0.8,0.9 -0.4,0 -0.8,-0.4 -0.8,-0.9 l 0,-12.1 -1.6,0 -1,11.3 c -0.1,5.6 2,8.4 4.8,9.4 l -0.1,5.6 4.8,0 -0.2,-5.6 c 2.9,-1 5,-4.1 5,-9.4 l -1,-11.4 -1.1,0 z"
                 id="path57"
                 inkscape:connector-curvature="0"
                 style="fill:#ebeced" /></g></g></g></g></g></g></svg>